<svg xmlns="http://www.w3.org/2000/svg" viewBox="0 0 460 460" width="460" height="460">
<defs>
<radialGradient id="g2" cx="50%" cy="50%" r="60%"><stop offset="0%" stop-color="#39d98a" stop-opacity=".26"/><stop offset="60%" stop-color="#a020f0" stop-opacity=".08"/><stop offset="100%" stop-opacity="0"/></radialGradient>
<linearGradient id="hex" x1="0" y1="0" x2="1" y2="1"><stop offset="0%" stop-color="#7CF5B0"/><stop offset="100%" stop-color="#37b6ff"/></linearGradient>
<filter id="b2"><feGaussianBlur stdDeviation="2.6"/></filter>
</defs>
<rect width="460" height="460" fill="url(#g2)"/>
<g fill="none" stroke="#5be2a6" stroke-width="1.4" opacity=".55">
<polygon points="230,120 282,150 282,210 230,240 178,210 178,150"/>
<polygon points="282,150 334,180 334,240 282,270 230,240 230,180"/>
<polygon points="178,210 230,240 230,300 178,330 126,300 126,240"/>
<polygon points="282,210 334,240 334,300 282,330 230,300 230,240"/>
<polygon points="126,150 178,180 178,240 126,270 74,240 74,180" opacity=".5"/>
<polygon points="230,240 282,270 282,330 230,360 178,330 178,270"/>
</g>
<polygon points="230,180 282,210 282,270 230,300 178,270 178,210" fill="url(#hex)" opacity=".9" filter="url(#b2)"/>
<polygon points="230,180 282,210 282,270 230,300 178,270 178,210" fill="none" stroke="#eafff5" stroke-width="1.6"/>
<g fill="#d7fff0"><circle cx="230" cy="120" r="4"/><circle cx="334" cy="180" r="4"/><circle cx="334" cy="300" r="4"/><circle cx="230" cy="360" r="4"/><circle cx="126" cy="300" r="4"/><circle cx="126" cy="180" r="4"/><circle cx="230" cy="240" r="6" fill="#fff"/></g>
</svg>
